<?xml version="1.0" encoding="utf-8"?>
<!-- Generator: Adobe Illustrator 17.0.2, SVG Export Plug-In . SVG Version: 6.00 Build 0)  -->
<!DOCTYPE svg PUBLIC "-//W3C//DTD SVG 1.1//EN" "http://www.w3.org/Graphics/SVG/1.1/DTD/svg11.dtd">
<svg version="1.1" id="Calque_1" xmlns="http://www.w3.org/2000/svg" xmlns:xlink="http://www.w3.org/1999/xlink" x="0px" y="0px"
	 width="141.73px" height="141.73px" viewBox="0 0 141.73 141.73" enable-background="new 0 0 141.73 141.73" xml:space="preserve">
<g>
	<path d="M114.906,28.927H95.667V21.94c0-1.533-1.248-2.781-2.781-2.781s-2.781,1.248-2.781,2.781v6.987H51.625V21.94
		c0-1.533-1.248-2.781-2.781-2.781s-2.78,1.248-2.78,2.781v6.987h-19.24c-1.533,0-2.78,1.248-2.78,2.781v88.083
		c0,1.533,1.247,2.781,2.78,2.781h88.083c1.533,0,2.781-1.248,2.781-2.781V31.708C117.688,30.174,116.44,28.927,114.906,28.927z
		 M112.125,117.009H29.605v-60.5h82.521V117.009z M112.125,50.947H29.605V34.489h16.459v5.173c0,1.533,1.247,2.781,2.78,2.781
		s2.781-1.248,2.781-2.781v-5.173h38.479v5.173c0,1.533,1.248,2.781,2.781,2.781s2.78-1.248,2.78-2.781v-5.173h16.459V50.947z"/>
</g>
</svg>
