<?xml version="1.0" encoding="utf-8"?>
<!-- Generator: Adobe Illustrator 17.0.2, SVG Export Plug-In . SVG Version: 6.00 Build 0)  -->
<!DOCTYPE svg PUBLIC "-//W3C//DTD SVG 1.1//EN" "http://www.w3.org/Graphics/SVG/1.1/DTD/svg11.dtd">
<svg version="1.1" id="Calque_1" xmlns="http://www.w3.org/2000/svg" xmlns:xlink="http://www.w3.org/1999/xlink" x="0px" y="0px"
	 width="141.73px" height="141.73px" viewBox="0 0 141.73 141.73" enable-background="new 0 0 141.73 141.73" xml:space="preserve">
<g>
	<path d="M109.374,48.224L92.582,31.432c-0.516-0.517-1.201-0.8-1.932-0.8s-1.416,0.284-1.931,0.8L38.342,81.81
		c-0.509,0.508-0.8,1.212-0.8,1.931v16.792c0,1.506,1.226,2.731,2.731,2.731h16.793c0.719,0,1.423-0.292,1.93-0.8l50.378-50.377
		c0.517-0.516,0.801-1.202,0.801-1.932C110.175,49.425,109.891,48.739,109.374,48.224z M55.935,97.801h-12.93V84.872l47.646-47.646
		l4.533,4.533L55.135,81.81c-0.517,0.516-0.801,1.202-0.801,1.932c0,0.729,0.284,1.416,0.801,1.931
		c1.03,1.033,2.831,1.033,3.861,0.001l40.051-40.051l4.533,4.533L55.935,97.801z"/>
</g>
</svg>
