<?xml version="1.0" encoding="utf-8"?>
<!-- Generator: Adobe Illustrator 17.0.2, SVG Export Plug-In . SVG Version: 6.00 Build 0)  -->
<!DOCTYPE svg PUBLIC "-//W3C//DTD SVG 1.1//EN" "http://www.w3.org/Graphics/SVG/1.1/DTD/svg11.dtd">
<svg version="1.1" id="Calque_1" xmlns="http://www.w3.org/2000/svg" xmlns:xlink="http://www.w3.org/1999/xlink" x="0px" y="0px"
	 width="141.73px" height="141.73px" viewBox="0 0 141.73 141.73" enable-background="new 0 0 141.73 141.73" xml:space="preserve">
<g>
	<path d="M66.992,97.258V62.475c0-1.875,1.688-3.563,3.563-3.563s3.563,1.688,3.563,3.563v35.158l10.125-10.125
		c1.313-1.313,3.563-1.313,4.875,0c1.313,1.313,1.313,3.563,0,4.875L73.18,108.321c-1.5,1.5-3.75,1.5-5.063,0.188L51.991,92.383
		c-1.313-1.313-1.313-3.563,0.188-5.063c1.313-1.313,3.563-1.313,4.875,0L66.992,97.258L66.992,97.258z"/>
	<g>
		<path d="M93.489,40.417H48.434c-1.766,0-3.203,1.437-3.203,3.203c0,1.766,1.437,3.203,3.203,3.203h45.055
			c1.766,0,3.203-1.437,3.203-3.203C96.692,41.854,95.255,40.417,93.489,40.417z"/>
	</g>
</g>
</svg>
