<?xml version="1.0" encoding="utf-8"?>
<!-- Generator: Adobe Illustrator 17.0.2, SVG Export Plug-In . SVG Version: 6.00 Build 0)  -->
<!DOCTYPE svg PUBLIC "-//W3C//DTD SVG 1.1//EN" "http://www.w3.org/Graphics/SVG/1.1/DTD/svg11.dtd">
<svg version="1.1" id="Calque_1" xmlns="http://www.w3.org/2000/svg" xmlns:xlink="http://www.w3.org/1999/xlink" x="0px" y="0px"
	 width="141.73px" height="141.73px" viewBox="0 0 141.73 141.73" enable-background="new 0 0 141.73 141.73" xml:space="preserve">
<g>
	<path d="M70.419,51.328v34.783c0,1.875-1.688,3.563-3.563,3.563c-1.875,0-3.563-1.688-3.563-3.563V50.953L53.169,61.078
		c-1.313,1.313-3.563,1.313-4.875,0c-1.313-1.313-1.313-3.563,0-4.875l15.938-15.938c1.5-1.5,3.75-1.5,5.063-0.188L85.42,56.203
		c1.313,1.313,1.313,3.563-0.188,5.063c-1.313,1.313-3.563,1.313-4.875,0L70.419,51.328L70.419,51.328z"/>
	<g>
		<path d="M88.977,101.762H43.922c-1.766,0-3.203,1.437-3.203,3.203c0,1.767,1.437,3.204,3.203,3.204h45.055
			c1.766,0,3.203-1.437,3.203-3.204C92.18,103.199,90.743,101.762,88.977,101.762z"/>
	</g>
</g>
</svg>
