<?xml version="1.0" encoding="utf-8"?>
<!-- Generator: Adobe Illustrator 17.0.2, SVG Export Plug-In . SVG Version: 6.00 Build 0)  -->
<!DOCTYPE svg PUBLIC "-//W3C//DTD SVG 1.1//EN" "http://www.w3.org/Graphics/SVG/1.1/DTD/svg11.dtd">
<svg version="1.1" id="Calque_1" xmlns="http://www.w3.org/2000/svg" xmlns:xlink="http://www.w3.org/1999/xlink" x="0px" y="0px"
	 width="141.73px" height="141.73px" viewBox="0 0 141.73 141.73" enable-background="new 0 0 141.73 141.73" xml:space="preserve">
<path d="M98.329,104.675c-4.209-0.402-7.347,0.525-10.996,1.456c-5.493,1.494-12.828,3.553-28.601,2.252
	c0.973-1.344,1.787-2.922,1.931-4.731c0.254-2.911-0.749-5.655-2.728-7.567c2.112-1.431,3.589-3.8,3.805-6.514
	c0.216-2.714-0.707-5.341-2.49-7.215c2.23-1.51,3.903-3.841,4.157-6.752s-0.749-5.655-2.728-7.567
	c2.112-1.431,3.589-3.8,3.805-6.514c0.144-1.809-0.143-3.498-0.862-5.065l7.199,0.773c0.09,6.957,1.956,9.459,2.391,9.849
	c0.435,0.39,0.908,0.583,1.381,0.776c0.59,0.114,1.139-0.087,1.647-0.602c0.859-0.753,0.928-2.169,0.175-3.028
	c0,0-1.627-2.15-1.362-8.835l0.718-20.171c0.254-2.911,1.383-9.838,5.918-13.251c2.033-1.548,4.505-2.195,7.495-1.823L87.308,37.85
	c-0.038,0.197-0.076,0.394,0.004,0.511l1.691,10.837c0.079,0.117,0.079,0.117,0.042,0.314c0.201,0.549,3.871,13.298,12.466,16.891
	c1.143,0.424,2.358-0.056,2.782-1.2c0.424-1.143-0.056-2.358-1.2-2.782c-6.347-2.548-9.605-12.667-9.968-13.961l-1.766-10.444
	l2.1-19.395c0.11-1.101-0.605-2.158-1.707-2.268c-5.117-0.985-9.357-0.168-12.798,2.334c-5.591,4.129-7.106,12.002-7.546,16.408
	l-0.616,18.048l-33.676-3.725c-4.996-0.553-9.49,3.175-10.043,8.171c-0.178,2.517,0.586,4.909,1.975,6.708
	c-2.623,1.434-4.452,4.042-4.861,7.229c-0.292,3.108,1.067,6.125,3.243,8.074c-1.798,1.389-3.04,3.599-3.336,6.196
	c-0.368,3.501,1.347,6.791,4.151,8.657c-1.601,1.427-2.491,3.399-2.828,5.681c-0.553,4.996,3.175,9.49,8.171,10.043l22.109,2.316
	c18.411,1.91,26.61-0.39,32.651-2.085c3.452-0.969,6.041-1.695,9.346-1.365c1.101,0.11,2.196-0.802,2.305-1.904
	C100.46,105.8,99.548,104.706,98.329,104.675z M32.875,77.281c-2.714-0.216-4.697-2.639-4.364-5.432
	c0.216-2.714,2.639-4.697,5.432-4.364l21.598,2.319c2.441,0.572,3.951,2.802,3.773,5.319c-0.216,2.714-2.639,4.697-5.432,4.364
	L32.875,77.281z M36.713,53.628l20.103,2.134c2.324,0.651,3.834,2.881,3.576,5.281c-0.216,2.714-2.639,4.697-5.432,4.364
	l-19.316-1.982c-2.714-0.216-4.697-2.639-4.364-5.432C31.497,55.277,33.919,53.294,36.713,53.628z M33.772,81.638l19.906,2.096
	c2.441,0.572,3.951,2.802,3.773,5.319c-0.216,2.714-2.639,4.697-5.432,4.364l-19.316-1.982c-2.714-0.216-4.697-2.639-4.364-5.432
	C28.635,83.405,31.058,81.422,33.772,81.638z M29.742,100.457c0.216-2.714,2.639-4.697,5.432-4.364l16.916,1.724
	c2.714,0.216,4.697,2.639,4.364,5.432c-0.296,2.597-2.484,4.421-4.921,4.36l-17.309-1.8
	C31.429,105.477,29.446,103.054,29.742,100.457z"/>
</svg>
