<?xml version="1.0" encoding="utf-8"?>
<!-- Generator: Adobe Illustrator 17.0.2, SVG Export Plug-In . SVG Version: 6.00 Build 0)  -->
<!DOCTYPE svg PUBLIC "-//W3C//DTD SVG 1.1//EN" "http://www.w3.org/Graphics/SVG/1.1/DTD/svg11.dtd">
<svg version="1.1" id="Calque_1" xmlns="http://www.w3.org/2000/svg" xmlns:xlink="http://www.w3.org/1999/xlink" x="0px" y="0px"
	 width="141.73px" height="141.73px" viewBox="0 0 141.73 141.73" enable-background="new 0 0 141.73 141.73" xml:space="preserve">
<path d="M100.919,90.647L82.615,72.343c3.172-4.113,5.081-9.249,5.081-14.833c0-13.431-10.927-24.359-24.359-24.359
	S38.978,44.077,38.978,57.51s10.927,24.359,24.359,24.359c5.585,0,10.72-1.909,14.833-5.081l18.304,18.304
	c0.614,0.614,1.418,0.921,2.222,0.921s1.609-0.307,2.222-0.921C102.147,93.864,102.147,91.874,100.919,90.647z M45.265,57.51
	c0-9.965,8.107-18.072,18.072-18.072S81.41,47.544,81.41,57.51s-8.107,18.072-18.072,18.072S45.265,67.476,45.265,57.51z"/>
</svg>
