<?xml version="1.0" encoding="utf-8"?>
<!-- Generator: Adobe Illustrator 17.0.2, SVG Export Plug-In . SVG Version: 6.00 Build 0)  -->
<!DOCTYPE svg PUBLIC "-//W3C//DTD SVG 1.1//EN" "http://www.w3.org/Graphics/SVG/1.1/DTD/svg11.dtd">
<svg version="1.1" id="Calque_1" xmlns="http://www.w3.org/2000/svg" xmlns:xlink="http://www.w3.org/1999/xlink" x="0px" y="0px"
	 width="141.73px" height="141.73px" viewBox="0 0 141.73 141.73" enable-background="new 0 0 141.73 141.73" xml:space="preserve">
<g>
	<path d="M100.31,67.746c-1.396,0-2.792,0.254-3.935,0.888c-1.777-2.412-4.569-3.808-7.615-3.808c-1.523,0-3.046,0.381-4.315,1.142
		c-1.777-2.158-4.442-3.427-7.235-3.427c-0.761,0-1.396,0.127-2.158,0.254V41.219c0-5.204-4.315-9.519-9.519-9.519
		s-9.519,4.315-9.519,9.519V81.2l-4.569-6.981c-1.269-2.031-3.427-3.3-5.966-3.681c-2.412-0.381-4.823,0.254-6.854,1.523
		c-2.031,1.396-3.554,3.427-4.189,5.712c-0.635,2.412-0.254,4.823,1.015,6.854c0.127,0.254,19.039,28.812,22.339,33.635
		c4.062,5.965,12.185,10.154,19.8,10.154h7.362c13.327,0,24.37-10.789,24.37-23.989V77.265
		C109.449,71.935,105.514,67.746,100.31,67.746z M103.991,104.046v0.508c-0.127,10.281-8.631,18.658-19.039,18.658H77.59
		c-6.473,0-12.819-4.062-15.358-7.869c-3.3-4.823-22.085-33.381-22.212-33.635c-0.508-0.761-0.635-1.65-0.381-2.538
		c0.254-1.015,0.888-1.904,1.904-2.538c0.761-0.508,1.65-0.761,2.538-0.761c0.254,0,0.381,0,0.635,0
		c0.888,0.127,1.777,0.635,2.158,1.269l9.646,14.596c0.635,1.015,1.904,1.396,3.046,1.142c1.142-0.381,1.904-1.396,1.904-2.665
		V41.219c0-2.285,1.777-4.062,4.062-4.062c2.285,0,4.062,1.777,4.062,4.062v38.839c0,1.523,1.269,2.665,2.665,2.665
		c1.396,0,2.665-1.269,2.665-2.665v-11.55c0.635-0.381,1.396-0.635,2.158-0.635c1.65,0,3.046,1.015,3.681,2.538v10.281
		c0,1.523,1.269,2.665,2.665,2.665c1.396,0,2.665-1.269,2.665-2.665v-9.646c0.761-0.508,1.523-0.888,2.412-0.888
		c1.777,0,3.3,1.142,3.808,2.792v9.012c0,1.523,1.269,2.665,2.665,2.665c1.523,0,2.665-1.269,2.665-2.665v-8.123
		c0.635-0.508,1.523-0.761,2.285-0.761c2.412,0,3.681,2.031,3.681,4.062v26.908H103.991z"/>
	<path fill="#FFFFFF" d="M65.152,24.719c1.523,0,2.665-1.269,2.665-2.665V10.757c0-1.523-1.269-2.665-2.665-2.665
		c-1.396,0-2.665,1.269-2.665,2.665v11.296C62.36,23.449,63.629,24.719,65.152,24.719z"/>
	<path fill="#FFFFFF" d="M49.921,29.415c0.508,0.508,1.269,0.761,1.904,0.761s1.396-0.254,1.904-0.761
		c1.015-1.015,1.015-2.792,0-3.808l-7.996-7.996c-1.015-1.015-2.792-1.015-3.808,0c-1.015,1.015-1.015,2.792,0,3.808L49.921,29.415z
		"/>
	<path d="M46.367,43.503c1.523,0,2.665-1.269,2.665-2.665s-1.269-2.665-2.665-2.665H35.071c-1.523,0-2.665,1.269-2.665,2.665
		s1.269,2.665,2.665,2.665H46.367z"/>
	<path d="M81.144,40.711c0,1.523,1.269,2.665,2.665,2.665h11.296c1.523,0,2.665-1.269,2.665-2.665s-1.269-2.665-2.665-2.665H83.81
		C82.414,38.046,81.144,39.188,81.144,40.711z"/>
	<path fill="#FFFFFF" d="M78.352,30.176c0.635,0,1.396-0.254,1.904-0.761l7.996-7.996c1.015-1.015,1.015-2.792,0-3.808
		c-1.015-1.015-2.792-1.015-3.808,0l-7.996,7.996c-1.015,1.015-1.015,2.792,0,3.808C76.956,29.922,77.717,30.176,78.352,30.176z"/>
</g>
</svg>
