<?xml version="1.0" encoding="utf-8"?>
<!-- Generator: Adobe Illustrator 17.0.2, SVG Export Plug-In . SVG Version: 6.00 Build 0)  -->
<!DOCTYPE svg PUBLIC "-//W3C//DTD SVG 1.1//EN" "http://www.w3.org/Graphics/SVG/1.1/DTD/svg11.dtd">
<svg version="1.1" id="Calque_1" xmlns="http://www.w3.org/2000/svg" xmlns:xlink="http://www.w3.org/1999/xlink" x="0px" y="0px"
	 width="141.73px" height="141.73px" viewBox="0 0 141.73 141.73" enable-background="new 0 0 141.73 141.73" xml:space="preserve">
<g>
	<path d="M92.271,114.383H48.613c-5.745,0-11.114-2.229-15.119-6.277c-1.933-1.954-3.449-4.23-4.507-6.765
		c-1.088-2.609-1.64-5.376-1.64-8.223V49.176c0-11.726,9.413-21.266,20.982-21.266h21.829c1.724,0,3.122,1.398,3.122,3.122
		s-1.398,3.122-3.122,3.122H48.329c-8.126,0-14.738,6.739-14.738,15.021v43.941c0,4.003,1.542,7.766,4.342,10.597
		c2.823,2.853,6.615,4.425,10.679,4.425h43.658c4.064,0,7.857-1.571,10.679-4.425c2.8-2.83,4.342-6.594,4.342-10.597V72.139
		c0-1.724,1.398-3.122,3.122-3.122s3.122,1.398,3.122,3.122v20.978c0,2.847-0.552,5.614-1.64,8.223
		c-1.058,2.535-2.574,4.812-4.507,6.765C103.385,112.154,98.015,114.383,92.271,114.383z"/>
	<path d="M106.729,40.388L72.993,74.123c-1.417,1.417-3.969,1.417-5.386,0c-1.417-1.417-1.417-3.969,0-5.386l34.019-34.019H86.317
		c-1.984,0-3.685-1.701-3.685-3.685c0-1.984,1.701-3.685,3.685-3.685h24.097c2.268,0,3.969,1.701,3.969,3.685v24.38
		c0,1.984-1.701,3.685-3.969,3.685c-1.984,0-3.685-1.701-3.685-3.685L106.729,40.388L106.729,40.388z"/>
</g>
</svg>
