<?xml version="1.0" encoding="utf-8"?>
<!-- Generator: Adobe Illustrator 17.0.2, SVG Export Plug-In . SVG Version: 6.00 Build 0)  -->
<!DOCTYPE svg PUBLIC "-//W3C//DTD SVG 1.1//EN" "http://www.w3.org/Graphics/SVG/1.1/DTD/svg11.dtd">
<svg version="1.1" id="Calque_1" xmlns="http://www.w3.org/2000/svg" xmlns:xlink="http://www.w3.org/1999/xlink" x="0px" y="0px"
	 width="141.73px" height="141.73px" viewBox="0 0 141.73 141.73" enable-background="new 0 0 141.73 141.73" xml:space="preserve">
<g>
	<path d="M123.296,27.489H20.838c-1.49,0-2.702,1.212-2.702,2.702v71.275c0,1.491,1.212,2.704,2.702,2.704h28.481v15.114
		c0,1.098,0.655,2.078,1.67,2.497c0.332,0.136,0.679,0.205,1.032,0.205c0.719,0,1.398-0.281,1.913-0.791l17.027-17.027h52.336
		c1.491,0,2.704-1.213,2.704-2.704V30.191C125.999,28.701,124.786,27.489,123.296,27.489z M52.022,98.764H23.54V32.893h97.052
		v65.871H69.84c-0.71,0-1.406,0.288-1.911,0.791L54.724,112.76v-11.292C54.724,99.977,53.512,98.764,52.022,98.764z"/>
	<path d="M47.566,57.441c1.49,0,2.702-1.212,2.702-2.702c0-3.423,2.784-6.208,6.206-6.208c3.423,0,6.208,2.785,6.208,6.208
		c0,1.49,1.212,2.702,2.702,2.702s2.702-1.212,2.702-2.702c0-6.403-5.209-11.612-11.612-11.612s-11.612,5.209-11.612,11.613
		C44.864,56.229,46.077,57.441,47.566,57.441z"/>
	<path d="M78.75,57.441c1.491,0,2.704-1.212,2.704-2.702c0-3.423,2.784-6.208,6.206-6.208c3.422,0,6.206,2.785,6.206,6.208
		c0,1.49,1.213,2.702,2.704,2.702c1.491,0,2.704-1.212,2.704-2.702c0-6.403-5.209-11.612-11.612-11.612
		c-6.403,0-11.612,5.209-11.612,11.611c-0.002,0.721,0.277,1.399,0.787,1.91C77.347,57.159,78.026,57.441,78.75,57.441z"/>
	<path d="M80.975,88.625c12.544,0,22.75-10.206,22.75-22.75c0-1.49-1.213-2.702-2.704-2.702c-1.491,0-2.704,1.212-2.704,2.702
		c0,9.563-7.78,17.343-17.343,17.343H63.157c-9.563,0-17.343-7.78-17.343-17.343c0-1.49-1.212-2.702-2.702-2.702
		c-1.49,0-2.702,1.212-2.702,2.702c-0.001,6.067,2.367,11.777,6.668,16.079c4.301,4.302,10.011,6.671,16.078,6.671H80.975z"/>
</g>
</svg>
